<svg width="24" height="24" viewBox="0 0 24 24" fill="none" xmlns="http://www.w3.org/2000/svg">
<path d="M4.00003 6.13558C3.39177 6.4866 2.88668 6.99161 2.53559 7.59981C2.18449 8.20801 1.99977 8.89794 2 9.6002C2 11.0802 2.80468 12.3735 4.00003 13.0648M4.00003 6.13558C4.50874 5.84209 5.07581 5.66416 5.66101 5.61442C6.24621 5.56467 6.83518 5.64433 7.38613 5.84775C7.93709 6.05116 8.43652 6.37334 8.84898 6.79142C9.26145 7.2095 9.57684 7.71324 9.77277 8.26689M4.00003 6.13558L5.06871 7.27423C5.18585 7.39927 5.27533 7.54757 5.33134 7.70949C5.38735 7.87141 5.40863 8.04331 5.39379 8.214C5.37895 8.38468 5.32832 8.55033 5.2452 8.70015C5.16208 8.84997 5.04833 8.9806 4.91137 9.08354L4.51803 9.3782C4.39313 9.47181 4.29425 9.59581 4.23077 9.7384C4.16729 9.881 4.14134 10.0375 4.15537 10.1929C4.16939 10.3484 4.22294 10.4976 4.31092 10.6266C4.3989 10.7555 4.51839 10.8598 4.65804 10.9295C5.27138 11.2362 5.34271 12.0822 4.79004 12.4868L4.00003 13.0648M4.00003 13.0648C4.5887 13.4048 5.27138 13.6001 6.00005 13.6001C7.19473 13.6001 8.26675 13.0762 9.00009 12.2462C9.64581 11.5162 10.0016 10.5748 10.0001 9.6002C10.0007 9.14607 9.92381 8.69517 9.77277 8.26689M9.77277 8.26689L9.03876 8.49955C8.86371 8.55496 8.70199 8.64592 8.56374 8.76674C8.42549 8.88756 8.31368 9.03563 8.23532 9.20167C8.15696 9.36771 8.11374 9.54814 8.10836 9.73167C8.10299 9.91519 8.13557 10.0978 8.20408 10.2682L9.00009 12.2468" stroke="black" stroke-linecap="round" stroke-linejoin="round"/>
<path d="M18.4002 8.88807C18.0586 8.88807 17.731 8.75236 17.4895 8.51081C17.2479 8.26926 17.1122 7.94165 17.1122 7.60005C17.1122 7.4309 17.1455 7.26342 17.2102 7.10715C17.275 6.95088 17.3699 6.80889 17.4895 6.68928C17.6091 6.56968 17.7511 6.4748 17.9073 6.41008C18.0636 6.34535 18.2311 6.31203 18.4002 6.31203C18.5694 6.31203 18.7369 6.34535 18.8931 6.41008C19.0494 6.4748 19.1914 6.56968 19.311 6.68928C19.4306 6.80889 19.5255 6.95088 19.5902 7.10715C19.6549 7.26342 19.6882 7.4309 19.6882 7.60005C19.6882 7.94165 19.5525 8.26926 19.311 8.51081C19.0694 8.75236 18.7418 8.88807 18.4002 8.88807ZM18.4002 4C16.4002 4 14.8002 5.60002 14.8002 7.60005C14.8002 10.2961 18.4002 14.2881 18.4002 14.2881C18.4002 14.2881 22.0003 10.2961 22.0003 7.60005C22.0003 5.60002 20.4002 4 18.4002 4ZM18.4002 15.2002C17.3842 15.2002 16.4802 15.8402 16.1442 16.8002H7.85608C7.64409 16.2014 7.2034 15.7111 6.63057 15.4367C6.05774 15.1623 5.39948 15.1261 4.80004 15.3362C4.5021 15.4406 4.22766 15.6026 3.9924 15.8132C3.75715 16.0237 3.56569 16.2785 3.42898 16.5631C3.29228 16.8477 3.21299 17.1564 3.19567 17.4716C3.17834 17.7868 3.22332 18.1024 3.32802 18.4002C3.54287 19.0005 3.98654 19.4914 4.56213 19.7657C5.13771 20.04 5.79846 20.0754 6.40006 19.8642C7.08007 19.6242 7.60008 19.0802 7.85608 18.4002H16.1522C16.5922 19.6482 17.9682 20.3042 19.2002 19.8642C19.4991 19.7609 19.7746 19.5995 20.0108 19.3894C20.2471 19.1793 20.4396 18.9245 20.5771 18.6398C20.7146 18.3551 20.7946 18.046 20.8123 17.7303C20.83 17.4146 20.7851 17.0985 20.6803 16.8002C20.3362 15.8402 19.4242 15.2002 18.4002 15.2002ZM18.4002 18.8002C18.082 18.8002 17.7767 18.6738 17.5517 18.4487C17.3266 18.2237 17.2002 17.9184 17.2002 17.6002C17.2002 17.2819 17.3266 16.9767 17.5517 16.7516C17.7767 16.5266 18.082 16.4002 18.4002 16.4002C18.7185 16.4002 19.0237 16.5266 19.2488 16.7516C19.4738 16.9767 19.6002 17.2819 19.6002 17.6002C19.6002 17.9184 19.4738 18.2237 19.2488 18.4487C19.0237 18.6738 18.7185 18.8002 18.4002 18.8002Z" fill="black"/>
</svg>
