<svg width="24" height="24" viewBox="0 0 24 24" fill="none" xmlns="http://www.w3.org/2000/svg">
<path d="M20.2401 3.74939L22.6953 4.24015C22.8272 4.26652 22.9356 4.3632 22.9737 4.49358C22.9929 4.55692 22.9946 4.62428 22.9786 4.68851C22.9626 4.75274 22.9295 4.81143 22.8828 4.85835L20.8715 6.87118C20.6308 7.11139 20.3047 7.24627 19.9647 7.24621H18.2961L14.1064 11.4374C14.1863 11.7392 14.201 12.0546 14.1495 12.3625C14.098 12.6705 13.9814 12.9639 13.8076 13.2233C13.6338 13.4826 13.4067 13.702 13.1415 13.8667C12.8763 14.0314 12.579 14.1377 12.2695 14.1785C11.9599 14.2194 11.6452 14.1937 11.3464 14.1034C11.0475 14.0131 10.7713 13.8601 10.5362 13.6546C10.3012 13.4492 10.1125 13.196 9.98296 12.912C9.85338 12.6279 9.78583 12.3195 9.78479 12.0073C9.78501 11.6702 9.86273 11.3376 10.012 11.0354C10.1612 10.7331 10.3779 10.4692 10.6454 10.264C10.9128 10.0588 11.2239 9.91792 11.5545 9.85213C11.8851 9.78633 12.2264 9.79743 12.5521 9.88457L16.7433 5.6919V4.02627C16.7433 3.6864 16.878 3.35972 17.1183 3.11947L19.1311 1.10663C19.178 1.05995 19.2367 1.02684 19.301 1.01085C19.3652 0.994858 19.4326 0.996571 19.4959 1.01581C19.6263 1.0539 19.723 1.1623 19.7493 1.29415L20.2401 3.74939Z" fill="black"/>
<path d="M3.1925 12.0073C3.19401 13.2641 3.46504 14.506 3.98733 15.6492C4.50962 16.7925 5.27101 17.8104 6.22014 18.6343C7.16927 19.4582 8.28406 20.069 9.48932 20.4255C10.6946 20.7819 11.9623 20.8758 13.2069 20.7006C14.4515 20.5255 15.644 20.0855 16.7041 19.4103C17.7642 18.7351 18.6672 17.8404 19.3521 16.7865C20.037 15.7327 20.4879 14.5442 20.6745 13.3012C20.861 12.0583 20.7788 10.7898 20.4334 9.58131C20.3849 9.44012 20.3657 9.29054 20.3768 9.14168C20.388 8.99281 20.4293 8.84778 20.4983 8.7154C20.5673 8.58302 20.6626 8.46607 20.7782 8.37167C20.8938 8.27727 21.0275 8.20739 21.171 8.16628C21.3145 8.12518 21.4649 8.11371 21.613 8.13258C21.7611 8.15145 21.9038 8.20026 22.0324 8.27604C22.161 8.35181 22.2729 8.45297 22.3611 8.57336C22.4494 8.69374 22.5123 8.83083 22.5459 8.97629C23.2146 11.3166 23.0876 13.8127 22.1847 16.073C21.2818 18.3333 19.654 20.2299 17.5569 21.4652C15.4597 22.7006 13.0118 23.2048 10.5971 22.8988C8.18247 22.5928 5.93772 21.4938 4.21503 19.7744C2.49422 18.0521 1.3941 15.8072 1.08738 13.3919C0.780666 10.9767 1.28472 8.52803 2.52042 6.43032C3.75611 4.33261 5.65347 2.70466 7.91459 1.80208C10.1757 0.899497 12.6726 0.773386 15.0131 1.44355C15.2918 1.52502 15.5269 1.71349 15.6671 1.96778C15.8072 2.22207 15.841 2.5215 15.7611 2.80064C15.6811 3.07977 15.494 3.31591 15.2404 3.45745C14.9869 3.59899 14.6877 3.63442 14.4081 3.556C13.0993 3.18048 11.7212 3.11412 10.3823 3.36213C9.04348 3.61015 7.78056 4.16577 6.69312 4.98519C5.60567 5.80461 4.72343 6.86543 4.11594 8.08402C3.50846 9.3026 3.19234 10.6456 3.1925 12.0073Z" fill="black"/>
<path d="M7.58734 12.0072C7.58742 12.8079 7.80612 13.5934 8.21985 14.279C8.63357 14.9646 9.22661 15.5241 9.93501 15.8974C10.6434 16.2707 11.4403 16.4435 12.2397 16.3971C13.039 16.3508 13.8106 16.087 14.4711 15.6344C15.1315 15.1806 15.6553 14.5549 15.9858 13.825C16.3162 13.0951 16.4409 12.2887 16.3462 11.493C16.3206 11.2999 16.3469 11.1035 16.4225 10.924C16.498 10.7445 16.62 10.5883 16.776 10.4716C16.9319 10.3549 17.1161 10.2819 17.3097 10.2601C17.5032 10.2383 17.6991 10.2684 17.8771 10.3474C18.0551 10.4254 18.2092 10.5492 18.3237 10.7062C18.4382 10.8632 18.5091 11.0477 18.529 11.241C18.6882 12.6007 18.4201 13.9761 17.7621 15.1765C17.1041 16.3768 16.0887 17.3426 14.8569 17.9397C13.6251 18.5368 12.2379 18.7356 10.888 18.5085C9.53805 18.2814 8.29229 17.6398 7.32359 16.6726C6.3549 15.7053 5.71133 14.4605 5.48222 13.1109C5.2531 11.7614 5.44981 10.3739 6.04502 9.14119C6.64024 7.90847 7.60445 6.89162 8.80382 6.23177C10.0032 5.57192 11.3782 5.3018 12.7381 5.45891C12.8837 5.47242 13.0251 5.51486 13.1541 5.58375C13.2831 5.65263 13.3971 5.74657 13.4893 5.86007C13.5815 5.97356 13.6501 6.10432 13.6911 6.24468C13.7322 6.38504 13.7448 6.53218 13.7282 6.67747C13.7116 6.82276 13.6662 6.96328 13.5946 7.09079C13.523 7.2183 13.4267 7.33024 13.3113 7.42005C13.1959 7.50985 13.0637 7.57571 12.9225 7.61377C12.7813 7.65183 12.6339 7.66131 12.489 7.64168C11.8733 7.57018 11.2493 7.62977 10.6582 7.81652C10.0671 8.00327 9.52217 8.31296 9.05923 8.72526C8.5963 9.13755 8.22583 9.64312 7.97215 10.2088C7.71847 10.7744 7.58733 11.3873 7.58734 12.0072Z" fill="black"/>
</svg>
