<svg width="24" height="24" viewBox="0 0 24 24" fill="none" xmlns="http://www.w3.org/2000/svg">
<path d="M10.45 15.5C10.85 15.9 11.3667 16.096 12 16.088C12.6333 16.08 13.1 15.8507 13.4 15.4L19 7L10.6 12.6C10.15 12.9 9.91267 13.3583 9.888 13.975C9.86333 14.5917 10.0507 15.1 10.45 15.5ZM12 4C12.9833 4 13.9293 4.13733 14.838 4.412C15.7467 4.68667 16.6007 5.09933 17.4 5.65L15.5 6.85C14.95 6.56667 14.3793 6.35433 13.788 6.213C13.1967 6.07167 12.6007 6.00067 12 6C9.78333 6 7.89567 6.77933 6.337 8.338C4.77833 9.89667 3.99933 11.784 4 14C4 14.7 4.096 15.3917 4.288 16.075C4.48 16.7583 4.75067 17.4 5.1 18H18.9C19.2833 17.3667 19.5627 16.7083 19.738 16.025C19.9133 15.3417 20.0007 14.6333 20 13.9C20 13.3 19.929 12.7167 19.787 12.15C19.645 11.5833 19.4327 11.0333 19.15 10.5L20.35 8.6C20.85 9.38333 21.246 10.2167 21.538 11.1C21.83 11.9833 21.984 12.9 22 13.85C22.016 14.8 21.9077 15.7083 21.675 16.575C21.4423 17.4417 21.1007 18.2667 20.65 19.05C20.4667 19.35 20.2167 19.5833 19.9 19.75C19.5833 19.9167 19.25 20 18.9 20H5.1C4.75 20 4.41667 19.9167 4.1 19.75C3.78333 19.5833 3.53333 19.35 3.35 19.05C2.91667 18.3 2.58333 17.5043 2.35 16.663C2.11667 15.8217 2 14.934 2 14C2 12.6167 2.26267 11.321 2.788 10.113C3.31333 8.905 4.03 7.84667 4.938 6.938C5.846 6.02933 6.90833 5.31267 8.125 4.788C9.34167 4.26333 10.6333 4.00067 12 4Z" fill="black"/>
</svg>
