<svg width="24" height="24" viewBox="0 0 24 24" fill="none" xmlns="http://www.w3.org/2000/svg">
<path fill-rule="evenodd" clip-rule="evenodd" d="M8.57731 8.45035C8.03774 8.98211 7.62536 9.62895 7.37099 10.3425C7.11663 11.0561 7.02685 11.818 7.10839 12.5711C7.12005 12.6817 7.10983 12.7935 7.0783 12.9001C7.04677 13.0067 6.99455 13.106 6.92462 13.1925C6.85469 13.2789 6.76842 13.3507 6.67074 13.4038C6.57305 13.4569 6.46587 13.4902 6.35531 13.5019C6.13202 13.5254 5.90851 13.4593 5.73396 13.3181C5.5594 13.1769 5.4481 12.9721 5.42454 12.7488C5.31647 11.7427 5.43704 10.7253 5.77725 9.77232C6.11746 8.81937 6.66853 7.95558 7.38931 7.24542C10.0428 4.62912 14.3193 4.67312 16.9415 7.33173C19.5646 9.99119 19.5485 14.2685 16.8958 16.8848C15.6677 18.0981 14.0189 18.791 12.2928 18.8191C11.6404 18.8306 10.9898 18.748 10.361 18.5737C10.2514 18.5464 10.1484 18.4974 10.0581 18.4297C9.96775 18.3619 9.89189 18.2768 9.83497 18.1792C9.77805 18.0817 9.74123 17.9737 9.72668 17.8618C9.71213 17.7498 9.72014 17.636 9.75025 17.5272C9.78035 17.4183 9.83194 17.3166 9.90197 17.228C9.972 17.1394 10.0591 17.0657 10.158 17.0113C10.257 16.9569 10.3658 16.9228 10.4781 16.9111C10.5904 16.8994 10.704 16.9103 10.812 16.9432C11.284 17.074 11.7725 17.1359 12.2623 17.1268C13.5541 17.1064 14.7881 16.5881 15.707 15.6799C17.6895 13.7253 17.7082 10.5192 15.7366 8.52058C13.7651 6.52112 10.5598 6.49573 8.57816 8.45035" fill="black"/>
<path fill-rule="evenodd" clip-rule="evenodd" d="M6.89514 13.4342C6.82125 13.5172 6.73174 13.5849 6.6317 13.6333C6.53167 13.6817 6.42308 13.7099 6.31213 13.7164C6.20118 13.7228 6.09005 13.7074 5.98508 13.6708C5.88012 13.6343 5.78337 13.5775 5.70037 13.5036L4.24499 12.209C4.07735 12.0597 3.97586 11.85 3.96285 11.626C3.94984 11.4019 4.02637 11.1819 4.1756 11.0142C4.32484 10.8466 4.53455 10.7451 4.75862 10.7321C4.98268 10.7191 5.20273 10.7956 5.37037 10.9448L6.82576 12.2394C6.90877 12.3133 6.97642 12.4028 7.02484 12.5029C7.07326 12.6029 7.10149 12.7115 7.10793 12.8225C7.11438 12.9334 7.0989 13.0445 7.06239 13.1495C7.02588 13.2545 6.96905 13.3512 6.89514 13.4342Z" fill="black"/>
<path fill-rule="evenodd" clip-rule="evenodd" d="M5.58616 13.3539C5.65283 13.4428 5.73636 13.5177 5.83198 13.5743C5.92759 13.6309 6.03342 13.6681 6.14342 13.6838C6.25342 13.6996 6.36544 13.6934 6.47308 13.6659C6.58073 13.6383 6.68188 13.5898 6.77078 13.5231L8.46308 12.2539C8.64262 12.1192 8.76131 11.9188 8.79304 11.6966C8.82478 11.4745 8.76696 11.2488 8.63232 11.0693C8.49767 10.8897 8.29722 10.771 8.07506 10.7393C7.8529 10.7076 7.62723 10.7654 7.4477 10.9L5.75539 12.1693C5.6665 12.2359 5.59161 12.3195 5.53499 12.4151C5.47838 12.5107 5.44115 12.6165 5.42544 12.7265C5.40972 12.8365 5.41583 12.9485 5.4434 13.0562C5.47098 13.1638 5.51949 13.265 5.58616 13.3539ZM12 8.61542C12.2244 8.61542 12.4396 8.70457 12.5983 8.86325C12.757 9.02193 12.8462 9.23716 12.8462 9.46157V12.4231C12.8462 12.6475 12.757 12.8627 12.5983 13.0214C12.4396 13.1801 12.2244 13.2693 12 13.2693C11.7756 13.2693 11.5604 13.1801 11.4017 13.0214C11.243 12.8627 11.1539 12.6475 11.1539 12.4231V9.46157C11.1539 9.23716 11.243 9.02193 11.4017 8.86325C11.5604 8.70457 11.7756 8.61542 12 8.61542Z" fill="black"/>
<path fill-rule="evenodd" clip-rule="evenodd" d="M15.3846 12.4231C15.3846 12.6475 15.2955 12.8627 15.1368 13.0214C14.9781 13.1801 14.7629 13.2692 14.5385 13.2692H12C11.7756 13.2692 11.5604 13.1801 11.4017 13.0214C11.243 12.8627 11.1539 12.6475 11.1539 12.4231C11.1539 12.1986 11.243 11.9834 11.4017 11.8247C11.5604 11.6661 11.7756 11.5769 12 11.5769H14.5385C14.7629 11.5769 14.9781 11.6661 15.1368 11.8247C15.2955 11.9834 15.3846 12.1986 15.3846 12.4231Z" fill="black"/>
<path fill-rule="evenodd" clip-rule="evenodd" d="M12 21.3077C17.1404 21.3077 21.3077 17.1404 21.3077 12C21.3077 6.85962 17.1404 2.69231 12 2.69231C6.85962 2.69231 2.69231 6.85962 2.69231 12C2.69231 17.1404 6.85962 21.3077 12 21.3077ZM12 23C18.0754 23 23 18.0754 23 12C23 5.92462 18.0754 1 12 1C5.92462 1 1 5.92462 1 12C1 18.0754 5.92462 23 12 23Z" fill="black"/>
</svg>
