<svg width="24" height="24" viewBox="0 0 24 24" fill="none" xmlns="http://www.w3.org/2000/svg">
<path d="M10.8726 21.3077H4.21816C3.62986 21.3077 3.06567 21.07 2.64968 20.6468C2.2337 20.2236 2 19.6497 2 19.0513V5.51282C2 4.91438 2.2337 4.34046 2.64968 3.9173C3.06567 3.49414 3.62986 3.25641 4.21816 3.25641H17.5271C18.1154 3.25641 18.6796 3.49414 19.0956 3.9173C19.5115 4.34046 19.7452 4.91438 19.7452 5.51282V11.1538M15.3089 1V5.51282M6.43631 1V5.51282M2 10.0256H19.7452M18.6373 21.3077C18.049 21.3077 17.4848 21.07 17.0688 20.6468C16.6528 20.2236 16.4191 19.6497 16.4191 19.0513C16.4191 18.4528 16.6528 17.8789 17.0688 17.4558C17.4848 17.0326 18.049 16.7949 18.6373 16.7949M18.6373 21.3077C19.2256 21.3077 19.7898 21.07 20.2057 20.6468C20.6217 20.2236 20.8554 19.6497 20.8554 19.0513C20.8554 18.4528 20.6217 17.8789 20.2057 17.4558C19.7898 17.0326 19.2256 16.7949 18.6373 16.7949M18.6373 21.3077V23M18.6373 16.7949V15.1026M21.9989 17.0769L20.5582 17.9231M16.7175 20.1795L15.2757 21.0256M15.2757 17.0769L16.7175 17.9231M20.5582 20.1795L22 21.0256" stroke="black" stroke-width="2" stroke-linecap="round" stroke-linejoin="round"/>
</svg>
