<svg width="24" height="24" viewBox="0 0 24 24" fill="none" xmlns="http://www.w3.org/2000/svg">
<path d="M21.7635 14.427L20.5135 13.107C20.6731 12.1449 20.6528 11.1616 20.4535 10.207L21.6735 8.88698C21.7682 8.78146 21.8315 8.65156 21.8562 8.51195C21.8809 8.37235 21.8661 8.22861 21.8135 8.09698C21.3075 6.84651 20.5599 5.70811 19.6135 4.74698C19.5209 4.6545 19.4056 4.58819 19.2791 4.55481C19.1526 4.52144 19.0196 4.52218 18.8935 4.55698L17.0535 5.02698C16.4869 4.61962 15.8723 4.28375 15.2235 4.02698L14.7735 2.30698C14.74 2.16747 14.6662 2.04091 14.5613 1.94309C14.4564 1.84527 14.325 1.78054 14.1835 1.75698C13.5603 1.64004 12.9274 1.58312 12.2935 1.58698C11.5002 1.5903 10.7105 1.69447 9.94346 1.89698C9.81545 1.92915 9.69857 1.99543 9.60524 2.08876C9.51191 2.18209 9.44564 2.29897 9.41346 2.42698L8.93346 4.19698C8.39685 4.43525 7.88728 4.73026 7.41346 5.07698L5.59346 4.62698C5.46567 4.59357 5.33122 4.59546 5.20443 4.63244C5.07763 4.66942 4.96325 4.74011 4.87346 4.83698C3.87923 5.86984 3.11871 7.10441 2.64346 8.45698C2.59737 8.58771 2.58791 8.72856 2.61612 8.86428C2.64432 9 2.7091 9.12542 2.80346 9.22698L4.06346 10.537C3.99966 10.9574 3.96624 11.3818 3.96346 11.807C3.96346 12.107 3.96346 12.407 4.01346 12.707L2.70346 14.167C2.6153 14.264 2.55413 14.3825 2.52606 14.5106C2.49798 14.6387 2.50398 14.7719 2.54346 14.897C2.9544 16.2192 3.63544 17.4417 4.54346 18.487C4.63478 18.5944 4.75452 18.6738 4.88894 18.7163C5.02336 18.7587 5.16703 18.7624 5.30346 18.727L7.02346 18.287C7.62529 18.7941 8.29937 19.2086 9.02346 19.517L9.52346 21.307C9.56198 21.4367 9.63402 21.5541 9.73234 21.6471C9.83066 21.7402 9.95176 21.8057 10.0835 21.837C10.8045 22 11.5425 22.084 12.2835 22.087C12.8735 22.081 13.4615 22.024 14.0435 21.917C14.1815 21.8926 14.31 21.83 14.4142 21.7363C14.5185 21.6427 14.5945 21.5216 14.6335 21.387L15.1035 19.697C15.9668 19.3881 16.7716 18.935 17.4835 18.357L19.2435 18.757C19.3754 18.7876 19.5133 18.7815 19.6421 18.7392C19.7708 18.6968 19.8854 18.62 19.9735 18.517C20.85 17.5436 21.5293 16.4093 21.9735 15.177C22.0094 15.0446 22.0088 14.9051 21.9718 14.773C21.9349 14.641 21.8629 14.5214 21.7635 14.427Z" fill="black"/>
<path d="M12.5 5V19M16 9.08333C16 7.47333 14.4332 6.16667 12.5 6.16667C10.5668 6.16667 9 7.47333 9 9.08333C9 10.6933 10.5668 12 12.5 12C14.4332 12 16 13.3067 16 14.9167C16 16.5267 14.4332 17.8333 12.5 17.8333C10.5668 17.8333 9 16.5267 9 14.9167" stroke="white" stroke-width="1.5" stroke-linecap="round"/>
</svg>
